<!DOCTYPE svg PUBLIC "-//W3C//DTD SVG 1.1//EN" "http://www.w3.org/Graphics/SVG/1.1/DTD/svg11.dtd">
<!-- Uploaded to: SVG Repo, www.svgrepo.com, Transformed by: SVG Repo Mixer Tools -->
<svg width="256px" height="256px" viewBox="-4.8 -4.8 57.60 57.60" xmlns="http://www.w3.org/2000/svg" fill="#000000" stroke="#000000" stroke-width="0.144">
<g id="SVGRepo_bgCarrier" stroke-width="0" transform="translate(1.2000000000000028,1.2000000000000028), scale(0.95)">
<path transform="translate(-4.8, -4.8), scale(1.7999999999999998)" d="M16,29.086152421103584C18.916054059722917,29.537056825974528,22.149539324947337,29.484124290601294,24.530022695998497,27.740569019981105C26.907455263918234,25.999248271955825,28.145569970761773,22.95918100970517,28.376283590561634,20.02129830473759C28.581091703622185,17.413293568304592,26.97439549795917,15.132798542093077,25.69951031219257,12.84843805575445C24.67058639589562,11.00479506415109,23.206819162430207,9.622088460063827,21.730301371225934,8.112916793793454C19.884696063574896,6.226495069641117,18.52184648003387,3.7123235886477595,16,2.9344185789426156C13.041108173692365,2.0216997464983013,9.493721614695426,1.7775538278794274,6.9593136638385555,3.556562778256609C4.417395207900588,5.340843672227798,3.5169416787908663,8.769492637272286,3.27620904123887,11.86578970674833C3.06792589328072,14.544722265299995,4.654073235381271,16.87500129007622,5.7324757502741335,19.336120860284925C6.686244196292914,21.512801789276978,7.469714992462297,23.732601796720232,9.19300003510291,25.369031684332263C11.114716834850904,27.193892185538154,13.381009614872278,28.681182459373538,16,29.086152421103584" fill="#ffbb33" strokewidth="0"/>
</g>
<g id="SVGRepo_tracerCarrier" stroke-linecap="round" stroke-linejoin="round" stroke="#CCCCCC" stroke-width="0.288">
<defs>
<style>.a{fill:none;stroke:#000;stroke-linecap:round;stroke-linejoin:round;}.b{fill:#000;}</style>
</defs>
<path class="a" d="M8.0723,20.7261a12.4759,12.4759,0,0,1,3.6466-5.6695c-.9317-.7453,0-5.3767,0-5.3767s3.7264,1.65,4.3918,2.4221c0,0,2.8747-3.4868,11.2059-3.4868S43.5,15.0566,43.5,23.654s-6.2285,11.339-6.2285,11.339a19.9775,19.9775,0,0,1-1.4905,4.3918H32.48A21.3853,21.3853,0,0,1,31.07,36.8562s-2.6351.3194-4.525.3194a23.0513,23.0513,0,0,1-3.966-.4259,6.4031,6.4031,0,0,1-.9316,2.6351H18.0538c-1.1179-.9582-1.6769-3.9659-1.6769-3.9659S7.327,31.32,5.4105,28.871c-1.038-1.9431-.905-6.2551-.905-6.2551A7.9406,7.9406,0,0,1,8.0723,20.7261Z"/>
<path class="a" d="M19.5444,13.7789a11.5482,11.5482,0,0,1,7.3464-2.156,13.1871,13.1871,0,0,1,7.9852,2.5287"/>
<circle class="b" cx="11.6124" cy="21.285" r="0.75"/>
</g>
<g id="SVGRepo_iconCarrier">
<defs>
<style>.a{fill:none;stroke:#000;stroke-linecap:round;stroke-linejoin:round;}.b{fill:#000;}</style>
</defs>
<path class="a" d="M8.0723,20.7261a12.4759,12.4759,0,0,1,3.6466-5.6695c-.9317-.7453,0-5.3767,0-5.3767s3.7264,1.65,4.3918,2.4221c0,0,2.8747-3.4868,11.2059-3.4868S43.5,15.0566,43.5,23.654s-6.2285,11.339-6.2285,11.339a19.9775,19.9775,0,0,1-1.4905,4.3918H32.48A21.3853,21.3853,0,0,1,31.07,36.8562s-2.6351.3194-4.525.3194a23.0513,23.0513,0,0,1-3.966-.4259,6.4031,6.4031,0,0,1-.9316,2.6351H18.0538c-1.1179-.9582-1.6769-3.9659-1.6769-3.9659S7.327,31.32,5.4105,28.871c-1.038-1.9431-.905-6.2551-.905-6.2551A7.9406,7.9406,0,0,1,8.0723,20.7261Z"/>
<path class="a" d="M19.5444,13.7789a11.5482,11.5482,0,0,1,7.3464-2.156,13.1871,13.1871,0,0,1,7.9852,2.5287"/>
<circle class="b" cx="11.6124" cy="21.285" r="0.75"/>
</g>
</svg>